<?xml version="1.0" encoding="UTF-8"?>
<svg width="28px" height="28px" viewBox="0 0 28 28" version="1.1" xmlns="http://www.w3.org/2000/svg" xmlns:xlink="http://www.w3.org/1999/xlink">
    <title>copy</title>
    <g id="Page-1" stroke="none" stroke-width="1" fill="none" fill-rule="evenodd">
        <g id="copy" fill="#FFFFFF" fill-rule="nonzero">
            <path d="M26,8 L26,26 L8,26 L8,8 L26,8 M26,6 L8,6 C6.8954305,6 6,6.8954305 6,8 L6,26 C6,27.1045695 6.8954305,28 8,28 L26,28 C27.1045695,28 28,27.1045695 28,26 L28,8 C28,6.8954305 27.1045695,6 26,6 Z" id="Shape"></path>
            <path d="M2,16 L0,16 L0,2 C0,0.8954305 0.8954305,0 2,0 L16,0 L16,2 L2,2 L2,16 Z" id="Path"></path>
        </g>
    </g>
</svg>